# xmcd
#
# Track frame offsets:
#	150
#	12833
#	30470
#	45473
#	63655
#	78747
#	91802
#	106264
#	120775
#	135019
#	149072
#	163923
#	182705
#	198343
#	215356
#	229864
#	248770
#	263929
#
# Disc length: 3704 seconds
#
# Revision: 1
# Processed by: cddbd v1.5.2PL0 Copyright (c) Steve Scherf et al.
# Submitted via: EasyCDDAExtractor 16.0.6.1
#
DISCID=ef0e7612
DTITLE=Συλλογικός δίσκος - Ρεμπέτικο σεργιάνι 1928-47 Ρεμπέτικο και παρανομία
DYEAR=1900
DGENRE=Ρεμπέτικη
TTITLE0=Αμπατζή Ρίτα   - Πάνε για το πράσσο [Μανώλης Χρυσαφάκης]
TTITLE1=Μπέζος Κώστας ή Κωστής Α. - Στην υπόγα [Α. Κωστής]
TTITLE2=Εσκενάζη Ρόζα - Κορόϊδο άδικα γυρνάς [Γιώργος Καμβύσης]
TTITLE3=Ιωαννίδης Γιαννάκης - Τούτ' οι μπάτσοι πού 'ρθαν τώρα [Παραδοσιακό]
TTITLE4=Ρούκουνας Κώστας ή Σαμιωτάκης - Για την αγάπη σου [Παναγιώτης Τούντας]
TTITLE5=Κρητικός Χαρίλαος - Ο κουμαρτζής [Χαρίλαος Κρητικός]
TTITLE6=Τσαουσάκης Πρόδρομος - Σε διώξαν απ' την Κοκκινιά [Βασίλης Τσιτσάνης]
TTITLE7=Εσκενάζυ Ρόζα - Η κατάρα του χαρτοπαίχτη [Σπύρος Περιστέρης]
TTITLE8=Αμπατζή Ρίτα - Το φλυτζάνι του Γιάννη [Μανώλης Χρυσαφάκης]
TTITLE9=Περπινιάδης Στελλάκης - Ηρωΐνη και μαυράκι [Δημ. Καρανόπουλος-Λουκάς Σ
TTITLE9=τρογγυλός-Σωτήρης Γαβαλάς]
TTITLE10=Χασκίλ Στέλλα - Η ντερμπεντέρισσα [Βασίλης Τσιτσάνης]
TTITLE11=Σγουρός Νώντας - Χαρτοπαίχτης [Νώντας Σγουρός]
TTITLE12=Αμπατζή Ρίτα - Ζούλα η Μαριωρή [Παναγιώτης Τούντας]
TTITLE13=Ασημακόπουλος Επαμεινώνδας - Το Ουέστ [Ζεϊμπέκικο, παραδοσιακό]
TTITLE14=Περπινιάδης Στελλάκης - Παπατζής [Βαγγέλης Παπάζογλου]
TTITLE15=Μπέζος Κώστας ή Κωστής Α. - Τουμπελέκι, τουμπελέκι [Α. Κωστής]
TTITLE16=Αμπατζή Ρίτα - Φτώχεια μαζί με την τιμή [Παναγιώτης Τούντας]
TTITLE17=Ρούκουνας Κώστας ή Σαμιωτάκης - Ο μόρτης [Δημήτρης Λορέντζος ή Μπαρού
TTITLE17=σης]
EXTD=
EXTT0=
EXTT1=
EXTT2=
EXTT3=
EXTT4=
EXTT5=
EXTT6=
EXTT7=
EXTT8=
EXTT9=
EXTT10=
EXTT11=
EXTT12=
EXTT13=
EXTT14=
EXTT15=
EXTT16=
EXTT17=
PLAYORDER=
